<svg width="120" height="136" viewBox="0 0 120 136" fill="none" xmlns="http://www.w3.org/2000/svg">
<path d="M58.9669 48.1782L54.1513 45.3958L56.7854 43.8896L55.6714 40.908L50.9563 43.5907L47.1232 41.3909L53.2732 37.8765L52.1593 34.8756L43.9282 39.5858L41.1394 37.9914L39.5922 35.3087L39.5381 32.6796L41.0853 30.0352L43.9398 28.3987L52.1709 33.1088L53.3854 30.0428L47.2353 26.5246L50.9679 24.3669L55.683 27.0497L56.8975 23.9837L54.2634 22.4736L58.9708 19.7641C59.2085 19.6297 59.4171 19.4501 59.5847 19.2357C59.7522 19.0213 59.8755 18.7763 59.9473 18.5146C60.0192 18.253 60.0382 17.9799 60.0034 17.7109C59.9686 17.4419 59.8806 17.1824 59.7444 16.9472C59.6087 16.7107 59.4272 16.5031 59.2102 16.3364C58.9932 16.1697 58.7451 16.0471 58.4801 15.9759C58.2151 15.9046 57.9385 15.8861 57.6662 15.9212C57.3939 15.9564 57.1314 16.0445 56.8937 16.1807L52.1941 18.8903V15.9469L48.8986 15.4219V20.8218L45.1389 22.9949V15.9469L41.8434 15.4219V24.8383L39.0662 26.4441H35.9718L33.651 25.1372L32.1038 22.4545V19.2582L40.3155 14.5634L38.2307 12.0799L32.1038 15.5828V11.2176L36.8266 8.53486L34.7418 6.0514L32.1038 7.54224V2.0656C32.1044 1.79256 32.0501 1.52214 31.9444 1.27002C31.8386 1.01791 31.6833 0.789126 31.4875 0.596952C31.2918 0.404778 31.0594 0.25304 30.804 0.150545C30.5486 0.0480494 30.2752 -0.00316141 29.9996 -0.000115859C29.4467 -0.000115859 28.9164 0.217521 28.5254 0.604918C28.1345 0.992315 27.9148 1.51774 27.9148 2.0656V7.54224L25.2846 6.03607L23.2075 8.51953L27.9264 11.2023V15.5828L21.7686 12.0646L19.6838 14.5634L27.9148 19.2582V22.4468L26.3676 25.1296L24.0584 26.4441H20.9641L18.1675 24.846V15.4219L14.9494 15.9929V23.0255L11.1433 20.8218V15.4219L7.92513 15.9929V19.0091L3.12884 16.2573C2.89112 16.1212 2.62856 16.033 2.35629 15.9979C2.08402 15.9627 1.80742 15.9813 1.54244 16.0525C1.27745 16.1238 1.02931 16.2463 0.812322 16.413C0.595335 16.5797 0.413787 16.7873 0.278142 17.0238C0.00430444 17.4985 -0.0680329 18.0616 0.0770391 18.5891C0.222111 19.1166 0.572713 19.5655 1.05174 19.8369L5.84029 22.6001L3.19073 24.091L4.32404 27.0956L9.04297 24.4129L12.8491 26.6166L6.70285 30.1195L7.83616 33.1242L16.0672 28.414L18.9256 30.0505L20.4728 32.6949L20.4187 35.324L18.8715 38.0068L16.0788 39.6011L7.83616 34.8756L6.76473 37.888L12.9109 41.3909L9.04297 43.5907L4.32404 40.908L3.25261 43.9165L5.8867 45.4265L1.04787 48.182C0.810034 48.3168 0.601342 48.4967 0.433724 48.7115C0.266107 48.9262 0.142851 49.1716 0.0710049 49.4335C-0.000841417 49.6955 -0.0198693 49.9689 0.0150092 50.2382C0.0498877 50.5075 0.137988 50.7673 0.274274 51.0028C0.410293 51.2384 0.591856 51.4452 0.808583 51.6113C1.02531 51.7774 1.27295 51.8995 1.53734 51.9707C1.80174 52.0419 2.0777 52.0607 2.34945 52.0261C2.62121 51.9916 2.88342 51.9043 3.1211 51.7693L7.96381 49.0099V52.0222L11.1201 52.5856V47.1818L14.988 44.9819V52.0145L18.1443 52.5779V43.1615L20.9447 41.5595H24.0623L26.3831 42.8587L27.9303 45.4916V48.7454L19.6838 53.4556L21.7686 55.87L27.9148 52.3518V56.786L23.2075 59.4879L25.2962 61.8986L27.9264 60.3886V65.9188C27.9264 66.4667 28.1461 66.9921 28.5371 67.3795C28.928 67.7669 29.4583 67.9846 30.0113 67.9846C30.5625 67.9876 31.0924 67.7738 31.4848 67.3901C31.8771 67.0064 32.0997 66.4842 32.1038 65.938V60.3886L34.7379 61.8986L36.8228 59.4879L32.1038 56.786V52.3518L38.25 55.87L40.3349 53.4556L32.1038 48.7454V45.4916L33.651 42.8472L35.9718 41.5595H39.0662L41.8627 43.1615V52.5779L45.0577 51.9877V44.9512L48.8908 47.1818V52.5779L52.0858 51.9877V48.9715L56.8589 51.7386C57.097 51.8743 57.3598 51.9622 57.6323 51.9971C57.9047 52.032 58.1815 52.0134 58.4466 51.9422C58.7118 51.871 58.9602 51.7486 59.1776 51.5822C59.3949 51.4157 59.577 51.2084 59.7134 50.9721C59.9834 50.5024 60.0565 49.9464 59.9169 49.4239C59.7773 48.9013 59.4361 48.454 58.9669 48.1782ZM38.5827 29.0694L37.7085 30.6024C37.3361 31.2399 36.8008 31.769 36.1564 32.1364C35.512 32.5037 34.7813 32.6964 34.0378 32.6949H32.305L33.1946 31.1619C33.568 30.5258 34.1029 29.9976 34.7462 29.6298C35.3895 29.262 36.1187 29.0675 36.8614 29.0655L38.5827 29.0694ZM29.9996 24.0871L30.8197 25.509C31.2171 26.1934 31.4263 26.9691 31.4263 27.7587C31.4263 28.5482 31.2171 29.324 30.8197 30.0083L30.0074 31.3995L29.1912 30.0007C28.795 29.3152 28.5865 28.539 28.5865 27.7491C28.5865 26.9591 28.795 26.1829 29.1912 25.4975L29.9996 24.0871ZM21.4127 29.0694H22.7124C23.5887 29.0691 24.4496 29.2978 25.2081 29.7325C25.9667 30.1672 26.5961 30.7925 27.0329 31.5452L27.7021 32.6949H26.3986C25.5201 32.6942 24.6573 32.4639 23.8973 32.0272C23.1374 31.5905 22.5072 30.9628 22.0703 30.2076L21.4127 29.0694ZM21.3779 38.9304L22.2753 37.3974C22.6373 36.7731 23.159 36.2545 23.7878 35.8938C24.4167 35.5332 25.1304 35.3432 25.857 35.3432H27.7021L26.7931 36.903C26.4277 37.5231 25.904 38.0369 25.2745 38.3928C24.6451 38.7487 23.9322 38.9341 23.2075 38.9304H21.3779ZM29.9996 43.8398L29.1371 42.3681C28.7637 41.7273 28.5671 41.0003 28.5671 40.2603C28.5671 39.5203 28.7637 38.7933 29.1371 38.1524L30.0113 36.6539L30.8777 38.1409C31.2511 38.7818 31.4477 39.5088 31.4477 40.2488C31.4477 40.9888 31.2511 41.7158 30.8777 42.3566L29.9996 43.8398ZM33.2836 37.0065L32.305 35.324H34.2815C34.9631 35.3213 35.6333 35.4971 36.2242 35.8337C36.8151 36.1702 37.3059 36.6554 37.6466 37.2403L38.6214 38.9189H36.6448C35.9643 38.9213 35.2952 38.7457 34.705 38.41C34.1148 38.0742 33.6245 37.5901 33.2836 37.0065Z" fill="#C1E0FF"/>
</svg>
